<svg width="2399" height="2501" viewBox="0 0 2399 2501" fill="none" xmlns="http://www.w3.org/2000/svg">
<g clip-path="url(#clip0_2344_27)">
<path fill-rule="evenodd" clip-rule="evenodd" d="M1205.99 1.73574C1084.95 7.04874 977.947 25.4527 868.143 59.8437C792.404 83.5657 711.227 118.287 643.994 155.718C503.551 233.908 384.593 333.226 283.394 456.784C207.243 549.759 145.64 651.753 97.7089 764.22C47.1339 882.888 14.9109 1011.98 4.00586 1139.61C-1.72714 1206.71 -1.17614 1286.47 5.52486 1359.72C22.6209 1546.58 80.1329 1725.87 175.216 1888.72C253.435 2022.69 359.82 2144.41 482.994 2240.87C626.008 2352.87 795.081 2432.4 973.494 2471.58C1039.58 2486.09 1100.04 2494.25 1175.99 2498.91C1202.6 2500.54 1293.3 2500.53 1318.49 2498.89C1398.71 2493.67 1461.69 2485.14 1527.49 2470.59C1798.09 2410.77 2033.49 2264.2 2215.34 2042.33C2288.21 1953.42 2349.83 1853.4 2392.12 1755.35C2395.91 1746.58 2398.89 1739.29 2398.75 1739.17C2398.14 1738.63 2192.11 1626.7 2190.79 1626.2C2189.71 1625.78 2187.7 1629.21 2183.02 1639.43C2174.03 1659.06 2147.59 1711.44 2137.45 1729.72C2113.67 1772.58 2082.32 1821.8 2054.11 1860.56C1958.63 1991.76 1841.97 2095.91 1708.89 2168.76C1535.71 2263.56 1342.2 2300.89 1123.49 2281.69C967.782 2268.02 818.135 2224.74 687.994 2155.73C625.86 2122.78 575.955 2090.17 523.618 2048.33C505.41 2033.78 494.984 2024.86 466.654 1999.62L461.494 1995.02L400.994 2020.87C367.719 2035.08 340.329 2046.71 340.128 2046.72C339.927 2046.72 339.927 2004.53 340.128 1952.97L340.494 1859.22L330.11 1844.72C265.862 1755.01 214.025 1649.51 181.483 1542.22C156.686 1460.46 141.523 1377.2 134.411 1283.72C132.223 1254.97 131.312 1161.44 132.937 1132.3C141.959 970.426 179.183 822.082 245.999 681.72C327.126 511.295 448.755 365.235 603.348 252.59C682.873 194.644 780.362 142.2 874.494 106.728C994.857 61.3707 1118.03 35.4287 1254.49 26.6937C1281.74 24.9497 1361.98 24.3007 1387.49 25.6187C1458.36 29.2767 1522.36 37.5007 1595.14 52.3007C1609.79 55.2817 1622.17 57.6897 1622.64 57.6527C1625.59 57.4217 1572.4 42.3517 1543.49 35.2297C1474.86 18.3227 1406.32 7.73474 1335.99 3.17474C1307.99 1.35874 1233.38 0.532744 1205.99 1.73574ZM1297.99 127.412C1284.3 127.81 1244.99 130.527 1227.49 132.285C1122.13 142.87 1018.33 167.114 931.494 201.421C835.37 239.396 744.104 299.119 673.346 370.351C607.354 436.784 557.187 512.555 524.566 595.063C507.717 637.681 498.008 675.465 499.188 693.831C499.771 702.919 502.087 708.051 507.313 711.836C510.748 714.325 512.204 714.72 517.926 714.72C525.979 714.72 527.859 714.208 559.994 703.255C680.636 662.138 887.916 596.074 1014.49 558.397C1209.17 500.45 1428.1 447.158 1668.49 399.201C1702.02 392.512 1798.42 374.661 1824.99 370.22C1846.06 366.7 1850.47 365.213 1856.14 359.72C1865.72 350.455 1865.16 339.381 1854.3 323.438C1829.63 287.193 1787.17 250.773 1733.87 220.147C1670.63 183.812 1588.5 155.782 1502.49 141.187C1431.47 129.134 1373.35 125.219 1297.99 127.412ZM1290.49 156.601L1282.49 157.248L1287.99 157.974C1291.02 158.374 1300.69 159.4 1309.49 160.255C1359.6 165.124 1408.34 175.197 1452.15 189.739C1487 201.306 1513.06 213.039 1536.51 227.729C1553.12 238.131 1563.6 246.462 1574.68 258.057C1589.4 273.453 1596.16 286.974 1596.27 301.22C1596.46 327.646 1577.52 352.858 1545.86 368.292C1540.71 370.805 1537.84 372.56 1539.49 372.191C1572.79 364.755 1614.33 354.928 1624.46 352.091C1657.23 342.912 1673.03 333.51 1680.22 318.912C1683.17 312.925 1683.49 311.409 1683.43 303.74C1683.36 292.57 1680.51 283.402 1674.12 273.72C1660.33 252.819 1637.11 234.667 1600.6 216.25C1540.47 185.916 1467.76 166.351 1384.49 158.096C1368.39 156.499 1304.34 155.481 1290.49 156.601ZM893.494 248.049C861.486 264.505 841.488 277.09 810.442 300.313C767.396 332.513 721.701 377.987 686.346 423.808C649.912 471.027 620.386 524.162 608.388 564.102C602.495 583.721 601.286 599.56 605.084 607.405C612.452 622.625 632.881 623.425 642.513 608.871C643.855 606.843 646.114 600.467 647.532 594.702C655.501 562.319 671.171 522.205 689.651 486.882C739.451 391.696 817.257 303.434 900.819 247.337C908.698 242.048 914.773 237.73 914.319 237.743C913.865 237.756 904.494 242.393 893.494 248.049ZM2011.12 430.73C1993.09 433.499 1980.58 435.601 1905.26 448.512C1889.73 451.173 1876.73 453.646 1876.37 454.006C1876.01 454.367 1875.49 545.125 1875.21 655.691C1874.79 822.453 1874.93 856.72 1876.03 856.72C1878.64 856.72 1934.64 845.595 1941.95 843.624C1958.19 839.244 1971.3 829.314 1978.15 816.207C1984.58 803.885 1984.36 806.233 1984.95 745.23L1985.49 689.24L2034.32 746.506C2064.56 781.966 2085.12 805.244 2088.32 807.637C2091.17 809.763 2096.19 812.84 2099.49 814.474C2131.29 830.218 2172.49 811.402 2180.49 777.48C2182.36 769.522 2182.37 760.924 2180.49 752.975C2177.48 740.192 2174.5 735.938 2146.27 704.156C2107.28 660.245 2095.99 647.326 2095.99 646.606C2095.99 646.252 2099.35 643.434 2103.46 640.343C2129.45 620.782 2144.9 601.604 2155.31 575.976C2163.66 555.42 2165.87 525.007 2160.49 504.386C2151.87 471.258 2127.9 446.137 2093.99 434.69C2080.31 430.068 2070.41 428.601 2049.99 428.167C2032.15 427.788 2028.85 428.005 2011.12 430.73ZM1807.99 466.256C1751.79 476.948 1671.18 493.404 1627.99 502.998L1604.49 508.22L1603.79 712.184C1603.4 824.364 1603.22 916.277 1603.38 916.436C1603.53 916.594 1615.33 914.005 1629.58 910.682C1643.83 907.359 1663.37 902.826 1672.99 900.609C1682.62 898.392 1699.94 894.386 1711.49 891.707C1723.04 889.028 1746.67 883.653 1763.99 879.762C1781.32 875.871 1800.57 871.532 1806.78 870.119C1830.88 864.633 1842.99 854.005 1848.63 833.381C1850.21 827.632 1851.81 768.72 1850.39 768.72C1849.96 768.72 1819.73 775.293 1783.23 783.326C1746.73 791.359 1716.76 797.771 1716.63 797.576C1716.5 797.38 1716.58 779.554 1716.8 757.963C1717.2 718.773 1717.21 718.705 1719.35 718.281C1720.53 718.047 1725.77 716.944 1730.99 715.83C1736.22 714.715 1751.29 711.501 1764.49 708.688C1777.69 705.875 1792.33 702.745 1797.02 701.734C1801.7 700.722 1808.6 698.669 1812.34 697.172C1824.8 692.184 1832.93 681.419 1834.95 667.22C1836.16 658.792 1836.34 611.72 1835.17 611.72C1834.45 611.72 1725.17 634.82 1719.24 636.225L1716.99 636.758V605.239C1716.99 587.904 1717.26 573.72 1717.58 573.72C1717.9 573.72 1731.29 570.996 1747.33 567.666C1824.73 551.599 1824.97 551.53 1833.48 543.22C1844.21 532.744 1845.81 525.858 1846.2 488.469L1846.49 459.719L1843.99 459.801C1842.62 459.846 1826.42 462.751 1807.99 466.256ZM1999.99 514.813C1996.97 515.28 1992.47 516.025 1989.99 516.468L1985.49 517.275L1985.23 572.012L1984.98 626.749L1994.22 622.106C2007.95 615.21 2017.44 608.413 2027.49 598.281C2040.34 585.33 2046.76 573.551 2049.06 558.722C2051.14 545.32 2048.44 532.783 2041.87 525.319C2033.18 515.448 2018.97 511.883 1999.99 514.813ZM1456.99 537.322C1455.07 537.544 1448.99 538.198 1443.49 538.774C1437.99 539.35 1426.74 541.184 1418.49 542.849C1320.18 562.687 1252.62 634.756 1235.56 737.984C1229.53 774.494 1229.85 809.987 1236.53 843.366C1243.26 876.963 1257.83 906.262 1278.43 927.569C1313.36 963.716 1361.34 978.315 1420.31 970.743C1451.69 966.715 1490.92 954.135 1514.15 940.656C1552.92 918.157 1570.25 895.591 1575.54 860.72C1576.71 853.041 1576.98 835.549 1576.99 769.47C1576.99 724.508 1576.88 687.726 1576.74 687.733C1574.55 687.852 1410.71 725.667 1410.21 726.173C1409.81 726.565 1409.49 738.661 1409.49 753.053C1409.49 776.163 1409.72 779.857 1411.39 784.67C1413.65 791.166 1420.72 799.199 1426.49 801.845C1431.58 804.173 1443.53 804.315 1452.79 802.158C1456.48 801.299 1462.01 800.016 1465.09 799.307L1470.69 798.019L1471.34 813.028C1472.25 834.058 1472.15 844.631 1470.98 848.838C1467.9 859.903 1455.6 868.296 1436.57 872.314C1427.06 874.321 1408.18 874.285 1400.57 872.245C1376.96 865.914 1361.78 846.111 1355.31 813.22C1352.74 800.159 1352.77 763.234 1355.36 749.22C1360.39 722.065 1369.03 701.818 1383.56 683.13C1399.58 662.534 1422.9 649.055 1451.03 644.139C1462.45 642.144 1487.66 642.645 1506.49 645.241C1524.99 647.791 1539.67 645.911 1550.75 639.574C1566.28 630.689 1574.44 614.914 1574.21 594.225C1573.89 564.737 1553.96 546.45 1514.16 539.102C1505.85 537.567 1465.69 536.316 1456.99 537.322ZM1097.49 638.733C1079.92 640.593 1051.63 647.509 1009.49 660.245C983.4 668.132 923.815 687.624 922.742 688.624C922.328 689.009 922.103 783.856 922.242 899.394L922.494 1109.46L956.594 1097.68C975.348 1091.21 993.123 1084.69 996.094 1083.19C1009.83 1076.29 1021.18 1065.63 1027.35 1053.82C1034.53 1040.09 1034.3 1042.44 1034.68 979.22C1034.88 947.87 1035.14 920.915 1035.26 919.319C1035.47 916.671 1039.81 920.882 1084.99 967.585C1112.22 995.727 1136.97 1020.61 1139.99 1022.87C1150.63 1030.83 1162.3 1034.73 1175.45 1034.7C1185.84 1034.69 1194.49 1032.6 1204.71 1027.67C1232.41 1014.28 1243.76 979.286 1229.91 949.98C1226.37 942.496 1217.59 933.329 1170.49 887.997L1146.49 864.895L1150.99 861.154C1159.65 853.955 1177.6 835.144 1184.07 826.491C1206.06 797.052 1216.18 767.403 1216.24 732.22C1216.28 709.488 1211.54 692.576 1200.77 676.984C1181.17 648.643 1141.76 634.046 1097.49 638.733ZM834.994 715.27C825.72 717.663 796.478 727.356 784.494 732.01L778.494 734.34L777.938 884.78C777.343 1045.7 777.57 1038.49 772.658 1052.29C766.519 1069.54 755.512 1079.83 738.534 1084.19C731.023 1086.12 727.681 1086.11 721.116 1084.16C715.07 1082.37 708.756 1077.13 705.912 1071.56C701.215 1062.35 701.221 1062.51 700.504 932.22C700.131 864.463 699.412 807.007 698.903 804.293C694.995 783.463 678.001 772.308 655.396 775.735C648.065 776.846 620.685 785.68 596.994 794.577L586.494 798.521V945.87C586.494 1084.77 586.6 1093.82 588.344 1103.72C592.918 1129.69 601.533 1147.93 616.733 1163.84C633.188 1181.07 653.45 1190.15 681.144 1192.73C727.743 1197.06 796.124 1173.45 835.086 1139.56C859.424 1118.39 877.861 1083.77 885.36 1045.17C890.523 1018.59 890.494 1019.53 890.494 877.22V744.22L888.235 737.036C881.581 715.871 862.652 708.132 834.994 715.27ZM1060.49 729.83C1056.09 730.291 1048.56 731.876 1043.74 733.352L1034.99 736.035V794.437C1034.99 840.891 1035.25 852.685 1036.24 852.089C1066.94 833.684 1087.65 811.74 1096.06 788.711C1101.42 774.01 1101.57 755.644 1096.4 744.996C1090.57 732.957 1078.66 727.927 1060.49 729.83ZM454.994 853.434C445.331 854.522 426.077 859.117 414.363 863.13C398.596 868.532 361.207 883.051 308.994 904.049L270.494 919.531L270.242 1143.63C270.103 1266.88 270.345 1367.72 270.78 1367.72C271.676 1367.72 267.941 1369.3 371.994 1324.96C455.689 1289.3 465.412 1284.95 481.148 1276.16C545.775 1240.04 576.195 1195.62 576.292 1137.22C576.311 1126.18 575.854 1121.32 574.131 1114.22C569.868 1096.66 558.624 1078.88 544.736 1067.75C536.949 1061.52 520.734 1053.37 511.494 1051.06C507.644 1050.09 504.34 1049.2 504.152 1049.09C503.964 1048.97 510.067 1042.65 517.714 1035.04C537.37 1015.5 547.105 1000.51 554.51 978.378C563.794 950.634 562.971 918.65 552.423 897.22C537.915 867.746 509.514 852.377 470.494 852.884C463.894 852.97 456.919 853.217 454.994 853.434ZM2056.49 860.759C1996.03 865.826 1936.23 885.087 1884.87 916.043C1861.03 930.407 1842.81 944.816 1821.47 966.182C1795.05 992.634 1777.86 1016.53 1761.41 1049.67C1741.95 1088.85 1730.96 1128.63 1724.77 1182.22C1723.05 1197.13 1723.09 1250.48 1724.84 1266.72C1730.83 1322.43 1748.64 1369.35 1777.29 1404.92C1806.13 1440.73 1845.09 1466.07 1893.21 1480.33C1920.96 1488.54 1941.91 1491.23 1977.99 1491.19C2001.06 1491.17 2008.08 1490.8 2021.49 1488.91C2069.39 1482.14 2109.3 1470.42 2145.99 1452.33C2194.17 1428.59 2228.99 1398.57 2244.73 1367.22C2252.53 1351.69 2258.64 1329.87 2261.12 1308.72C2262.02 1301.03 2262.36 1268.82 2262.38 1188.51C2262.4 1128.18 2262.12 1078.51 2261.76 1078.15C2261.27 1077.66 2058.54 1120.76 2006.65 1132.39L1999.81 1133.92L2000.26 1171.57C2000.75 1211.83 2001.12 1215.26 2006.32 1226.85C2017.49 1251.77 2043.77 1257.07 2088.15 1243.36L2095.8 1241L2096.5 1255.11C2096.89 1262.87 2097.05 1275.29 2096.85 1282.72C2096.52 1295.27 2096.3 1296.54 2093.78 1300.84C2086.03 1314.02 2067.16 1324.46 2039.49 1330.88C2026.7 1333.85 2000.8 1334.57 1988.68 1332.29C1970.26 1328.82 1956.2 1321.89 1944.1 1310.3C1921.6 1288.75 1909.93 1254.78 1908.34 1206.22C1906.38 1146.33 1926.88 1093.37 1965.03 1059.75C1992.16 1035.84 2022.94 1023.47 2067.99 1018.35C2090.09 1015.85 2098.95 1015.53 2114.11 1016.71C2132.67 1018.16 2143.38 1019.86 2165.49 1024.89C2188.11 1030.03 2200.99 1030.57 2212.99 1026.87C2235.74 1019.86 2251.87 1002.67 2259.59 977.22C2262 969.271 2262.33 966.527 2262.39 953.72C2262.45 941.48 2262.1 937.973 2260.17 931.22C2254.29 910.633 2242.77 895.681 2224.99 885.564C2207.39 875.546 2166.73 864.962 2131.49 861.226C2116.61 859.647 2073 859.376 2056.49 860.759ZM411.494 945.377C405.019 946.396 396.318 949.006 390.302 951.734L383.994 954.595V1002.12V1049.64L391.78 1046.31C409.822 1038.59 419.275 1032.42 428.965 1022.04C449.093 1000.49 453.175 965.732 437.227 951.694C434.759 949.521 431.109 947.281 429.117 946.716C424.624 945.442 415.492 944.748 411.494 945.377ZM1670.99 962.24C1619.06 974.327 1594.4 981.475 1580.49 988.471C1549.67 1003.97 1531.8 1030.97 1526.51 1070.03C1525.29 1079.05 1524.85 1100.77 1524.24 1181.99L1523.49 1282.75L1507.49 1263.01C1456.4 1199.98 1400.29 1135.04 1366.06 1099.33C1346.51 1078.93 1342.42 1075.49 1331.49 1070.22C1312 1060.83 1288.6 1059.49 1261.49 1066.22C1255.99 1067.59 1231.69 1074.72 1207.49 1082.08L1163.49 1095.44V1333.33C1163.49 1464.17 1163.61 1603.02 1163.76 1641.89L1164.02 1712.56L1185.76 1705.06C1197.71 1700.93 1215.14 1694.94 1224.49 1691.74C1254.55 1681.46 1259.29 1679.66 1270.92 1674.12C1310.49 1655.24 1329.96 1629.45 1336.53 1587.18C1337.86 1578.59 1338.07 1561.18 1338 1460.22L1337.92 1343.22L1340.32 1345.72C1341.63 1347.09 1383.93 1395.75 1434.31 1453.85C1484.69 1511.94 1528.07 1561.4 1530.7 1563.74C1542.31 1574.08 1556.81 1581.44 1572.34 1584.88C1586.11 1587.93 1607.1 1587.1 1623.22 1582.85C1641.39 1578.07 1652.92 1571.7 1665.86 1559.28C1674.69 1550.81 1679.8 1543.55 1685.51 1531.34C1690.5 1520.7 1692.84 1511.92 1693.9 1499.87C1694.98 1487.57 1695.44 958.103 1694.37 957.498C1693.89 957.225 1683.37 959.359 1670.99 962.24ZM404.818 1110.63C401.146 1111.64 395.184 1113.85 391.568 1115.54L384.994 1118.61L384.979 1149.92C384.97 1167.13 384.678 1191.39 384.33 1203.82C383.964 1216.87 384.076 1226.65 384.595 1226.96C385.761 1227.66 410.939 1216.16 420.274 1210.66C424.593 1208.11 431.152 1202.75 436.596 1197.31C443.991 1189.92 446.48 1186.63 449.864 1179.72C463.384 1152.14 457.117 1120.88 436.17 1111.43C429.615 1108.47 414.104 1108.08 404.818 1110.63ZM1103.49 1110.44C1090.5 1113.65 1016.26 1138.01 1000.32 1144.3C971.328 1155.74 953.018 1167.91 939.853 1184.48C920.708 1208.57 912.448 1236.13 911.464 1279.22C911.213 1290.22 910.822 1412.06 910.595 1549.97C910.266 1750.77 910.434 1800.72 911.44 1800.72C913.069 1800.72 937.812 1792.1 988.87 1773.75C1035.11 1757.13 1055.85 1746.01 1073.62 1728.31C1083.77 1718.19 1090.73 1708.17 1095.59 1696.64C1099.51 1687.34 1103.58 1671.27 1104.93 1659.72C1106.09 1649.84 1107.35 1109.65 1106.21 1109.84C1105.82 1109.9 1104.59 1110.17 1103.49 1110.44ZM771.107 1224.2C749.406 1229.12 731.392 1239.81 718.825 1255.22C716.134 1258.52 678.059 1322.28 634.213 1396.9L554.494 1532.58L554.24 1424.15C554.1 1364.51 553.826 1315.72 553.631 1315.72C553.436 1315.72 511.475 1333.02 460.385 1354.17L367.494 1392.62L366.985 1482.92C366.705 1532.58 366.366 1671.18 366.231 1790.92L365.985 2008.61L370.24 2006.75C382.004 2001.6 498.838 1952.88 500.994 1952.22C509.977 1949.49 524.114 1939.71 532.584 1930.37C542.433 1919.51 549.258 1901.78 551.89 1880.22C552.622 1874.22 552.989 1837.08 552.991 1768.89C552.993 1706.73 553.357 1666.68 553.918 1666.89C554.426 1667.07 589.054 1703.44 630.869 1747.72C678.687 1798.35 709.441 1830.14 713.755 1833.38C722.655 1840.09 731.745 1845.04 742.032 1848.79C755.245 1853.61 763.031 1854.94 778.494 1854.98C790.545 1855.02 793.831 1854.66 802.099 1852.41C838.433 1842.54 865.68 1817.23 875.562 1784.17C879.047 1772.51 880.044 1751.52 877.696 1739.22C875.589 1728.18 870.631 1715.04 865.663 1707.32C862.76 1702.81 840.646 1679.77 792.849 1631.47L724.204 1562.11L737.222 1541.66C744.381 1530.42 768.928 1491.74 791.768 1455.72C814.609 1419.69 839.6 1380.32 847.303 1368.22C870.134 1332.36 874.195 1322.32 874.216 1301.72C874.237 1281.54 867.987 1265.34 854.686 1251.1C843.433 1239.05 830.686 1231.51 812.494 1226.15C801.224 1222.82 781.313 1221.89 771.107 1224.2ZM2047.49 1533.14C2021.32 1538.21 1910.93 1566.09 1822.99 1589.84C1457.69 1688.51 1041.17 1825.72 806.994 1924.53C767.524 1941.18 764.04 1942.89 758.794 1948.17C752.282 1954.73 751.257 1966.61 756.312 1976.94C759.514 1983.48 776.383 2001.65 787.734 2010.78C803.958 2023.84 836.841 2043.77 858.827 2053.89C941.905 2092.1 1033.89 2115.42 1139.99 2125.16C1190.82 2129.83 1257.13 2130.03 1311.49 2125.67C1436.02 2115.69 1574.95 2076.74 1688.49 2019.97C1771.73 1978.35 1839.58 1930.51 1900.86 1870.24C1929.4 1842.18 1948.57 1820.73 1970.61 1792.22C2018.82 1729.86 2058.23 1654.97 2078.07 1588.03C2083 1571.38 2084.39 1556.25 2081.7 1548.37C2077.12 1534.93 2065.34 1529.68 2047.49 1533.14ZM1927.26 1632.67C1920.91 1634.96 1917.62 1637.23 1912.33 1642.97C1907.33 1648.39 1903.57 1654.72 1901.13 1661.83C1897.64 1671.98 1885.61 1699.13 1875.92 1718.72C1817.22 1837.49 1724.36 1937.77 1607.31 2008.79C1600.61 2012.86 1595.25 2016.31 1595.4 2016.45C1596.43 2017.49 1648.48 1993.31 1669.19 1982.16C1796.22 1913.82 1894.95 1814.54 1955.06 1694.72C1965.6 1673.71 1967.41 1668.06 1966.77 1658.16C1965.49 1638.18 1946.32 1625.82 1927.26 1632.67Z" fill="white"/>
</g>
<defs>
<clipPath id="clip0_2344_27">
<rect width="2399" height="2500" fill="white" transform="translate(-0.0078125 0.719757)"/>
</clipPath>
</defs>
</svg>
