<svg width="465" height="89" viewBox="0 0 465 89" fill="none" xmlns="http://www.w3.org/2000/svg">
<path fill-rule="evenodd" clip-rule="evenodd" d="M166 16.5V28L171.25 27.998C181.896 27.995 187.4 21.912 184.959 12.847C183.514 7.481 179.351 5.009 171.75 5.004L166 5V16.5ZM4 46.5V87H31.5H59V73.5V60H45.5H32V46.529V33.058L45.25 32.779L58.5 32.5L58.779 19.25L59.058 6H31.529H4V46.5ZM85 19V32H95.375C101.081 32 107.156 32.281 108.875 32.625L112 33.25V46.625V60H98.5H85V73.5V87H112H139V46.5V6H112H85V19ZM266.688 6.646C265.272 8.061 266.073 10 268.073 10C269.471 10 270.041 9.45699 269.823 8.33299C269.466 6.49199 267.759 5.574 266.688 6.646ZM170 16.5V24H173.845C178.78 24 181 21.619 181 16.326C181 11.332 178.667 9 173.671 9H170V16.5ZM195.095 12.941C194.421 13.358 192.775 13.488 191.435 13.232C189.027 12.772 189 12.852 189 20.383C189 27.268 189.187 28 190.95 28C192.621 28 192.943 27.182 193.2 22.291C193.468 17.184 193.756 16.522 195.926 16.013C197.26 15.701 198.517 14.95 198.718 14.346C199.19 12.929 196.686 11.958 195.095 12.941ZM204.357 12.991C201.563 14.12 199 17.84 199 20.768C199 24.347 203.27 28 207.455 28C212.1 28 215 25.118 215 20.5C215 17.166 212.268 13 210.082 13C209.577 13 208.564 12.803 207.832 12.563C207.099 12.322 205.536 12.515 204.357 12.991ZM221.272 13.22C217.385 15.079 216.458 22.639 219.68 26.199C221.07 27.735 222.342 28.083 225.173 27.704C227.951 27.331 228.732 27.534 228.351 28.527C227.602 30.479 225.301 31.065 222.527 30.01C219.626 28.907 218.212 30.346 220.036 32.544C221.812 34.684 227.634 34.366 230 32C231.686 30.314 232 28.667 232 21.511C232 13.327 231.919 13.028 229.75 13.184C228.512 13.274 226.6 13.078 225.5 12.751C224.4 12.423 222.497 12.634 221.272 13.22ZM241 12.765C237.587 13.893 236 16.347 236 20.5C236 26.284 238.15 28.048 244.829 27.74C247.686 27.608 250.018 27.162 250.012 26.75C250.005 26.338 250 23.105 250 19.567C250 13.139 249.998 13.134 247.144 13.215C245.573 13.26 243.886 13.065 243.394 12.783C242.902 12.501 241.825 12.493 241 12.765ZM260.095 12.941C259.421 13.358 257.754 13.484 256.389 13.224C253.908 12.749 253.907 12.751 254.204 20.114C254.448 26.193 254.806 27.537 256.25 27.813C257.719 28.093 258.002 27.373 258.015 23.323C258.033 17.836 258.694 16.385 261.417 15.866C262.472 15.665 263.503 14.993 263.709 14.373C264.188 12.934 261.701 11.949 260.095 12.941ZM277.315 13.061C273.07 14.666 271.576 21.522 274.546 25.763C275.874 27.658 276.935 27.947 282.046 27.806L288 27.642V20.351V13.061L284.657 13.187C282.819 13.256 280.906 13.07 280.407 12.774C279.908 12.477 278.517 12.607 277.315 13.061ZM266 20.5C266 27.333 266.178 28 268 28C269.822 28 270 27.333 270 20.5C270 13.667 269.822 13 268 13C266.178 13 266 13.667 266 20.5ZM204.2 17.2C202.542 18.858 202.696 22.503 204.487 23.989C206.49 25.652 210.715 24.473 211.489 22.035C212.898 17.594 207.432 13.968 204.2 17.2ZM221.932 18.126C221.106 19.67 221.091 20.904 221.876 22.626C223.719 26.673 229 25.096 229 20.5C229 16.051 223.951 14.355 221.932 18.126ZM239.932 18.126C238.303 21.172 240.267 25.248 243.158 24.818C246.03 24.391 247.439 21.887 246.628 18.655C245.782 15.284 241.629 14.957 239.932 18.126ZM277.713 16.621C276.278 18.055 276.964 24.049 278.636 24.691C281.331 25.725 283.5 23.585 283.5 19.891C283.5 17.005 283.122 16.456 280.963 16.204C279.567 16.041 278.104 16.229 277.713 16.621ZM409 61V87H414.5H420V61V35H414.5H409V61ZM178.037 37.136C172.743 38.713 169.391 41.566 167.614 46.007C165.504 51.279 165.577 53.251 168.062 58.121C169.774 61.478 171.257 62.667 176.812 65.136C187.38 69.833 188.467 70.471 188.793 72.163C189.239 74.479 186.285 77 183.124 77C181.621 77 178.323 75.688 175.795 74.085L171.198 71.17L168.011 75.135C166.259 77.316 165.037 79.653 165.296 80.328C166.074 82.358 175.484 86.967 180.154 87.608C193.192 89.395 203.975 79.205 200.972 67.935C199.665 63.027 196.627 60.493 187.402 56.615C179.397 53.249 177.658 51.321 180.04 48.452C181.672 46.485 183.843 46.626 188.5 49C193.494 51.546 194.031 51.484 196.743 48.045C200.705 43.021 200.586 42.331 195.303 39.654C189.48 36.703 182.774 35.725 178.037 37.136ZM288 62V87H293.958H299.916L300.208 79.25L300.5 71.5L307.572 70.868C318.257 69.913 322.283 67.225 325.089 59.174C327.9 51.11 322.465 40.654 314.171 38.169C312.024 37.526 305.258 37 299.134 37H288V62ZM218 43.5V47H229.391H240.781L241.19 43.5L241.598 40H229.799H218V43.5ZM300 54V60H304.5C307.667 60 309.593 59.407 311 58C315.483 53.517 311.897 48 304.5 48H300V54ZM213.389 53.905C202.758 60.387 202.057 78.807 212.207 84.979C216.812 87.78 222.113 88.397 226.351 86.627C228.479 85.738 230.194 85.505 230.537 86.06C230.857 86.577 233.341 87 236.059 87H241V69.5V52H235.969C232.456 52 230.766 52.445 230.371 53.475C229.872 54.776 229.467 54.776 226.952 53.475C223.028 51.446 217.114 51.633 213.389 53.905ZM255.5 53.364C245.683 57.92 242.15 70.991 248.278 80.084C251.221 84.452 255.672 86.937 261.867 87.671C269.002 88.516 276.631 84.78 279.995 78.794C284.444 70.879 282.377 60.678 275.22 55.218C272.387 53.058 270.462 52.495 265.11 52.261C260.985 52.08 257.372 52.495 255.5 53.364ZM334.99 54.25C330.028 57.627 327.774 61.296 327.239 66.869C326.535 74.193 327.666 78.503 331.303 82.36C335.902 87.236 341.908 88.877 347.627 86.82C350.032 85.955 352 85.642 352 86.124C352 86.606 354.475 87 357.5 87H363V69.5V52H358.05C354.634 52 352.832 52.477 352.238 53.539C351.464 54.922 351.08 54.922 348.439 53.545C344.208 51.338 338.855 51.619 334.99 54.25ZM369.006 63.7C369.012 76.958 369.965 81.679 373.26 84.774C376.631 87.941 382.677 88.542 387.25 86.165C390.187 84.638 391 84.517 391 85.608C391 86.643 392.543 87 397.024 87H403.047L402.774 69.75L402.5 52.5H397H391.5L391 63.834C390.571 73.555 390.224 75.369 388.559 76.584C386.17 78.327 384.868 78.364 382.712 76.75C381.353 75.732 380.992 73.363 380.771 64L380.5 52.5L374.75 52.2L369 51.9L369.006 63.7ZM434.401 53.905C428.614 56.534 425.696 61.053 425.18 68.187C424.674 75.185 426.066 78.973 430.61 82.963C439.655 90.904 453.923 88.703 459.718 78.47C464.737 69.609 460.624 57.374 451.282 53.377C446.802 51.46 439.266 51.696 434.401 53.905ZM219.302 63.501C216.352 65.567 215.508 70.148 217.402 73.81C220.846 80.471 229.222 78.037 229.805 70.205C230.312 63.386 224.637 59.764 219.302 63.501ZM259 64C256.284 66.716 256.291 73.049 259.013 75.512C266.136 81.958 275.355 71.264 268.545 64.455C265.572 61.482 261.703 61.297 259 64ZM340.336 64.573C338.203 66.706 337.862 67.765 338.348 70.754C338.669 72.738 339.511 74.926 340.216 75.615C344.816 80.106 352 76.662 352 69.966C352 62.675 345.322 59.587 340.336 64.573ZM438.455 64.455C433.707 69.202 436.471 77.333 442.831 77.333C447.317 77.333 450 74.53 450 69.845C450 62.626 443.376 59.533 438.455 64.455Z" fill="white"/>
</svg>
