<svg width="643" height="200" viewBox="0 0 643 200" fill="none" xmlns="http://www.w3.org/2000/svg">
<path fill-rule="evenodd" clip-rule="evenodd" d="M327.275 23.9489C322.442 25.1299 319.511 27.4229 317.399 31.6749C315.594 35.3109 315.5 38.6199 315.5 98.4999V161.5L318 165.911C321.441 171.984 324.848 174.252 331.209 174.706C338.279 175.211 343.623 172.229 346.75 166.034C348.662 162.245 349 159.982 349 150.952V140.328L355.903 133.664C359.699 129.999 363.187 127.01 363.653 127.022C364.119 127.034 368.972 133.446 374.437 141.272C394.918 170.598 398.224 174 406.238 174C413.077 174 421.02 165.971 420.978 159.102C420.945 153.633 418.541 149.409 401.612 125.065L386.009 102.63L399.857 88.5649C418.789 69.3339 420.419 65.5879 413.213 57.8619C410.106 54.5319 408.588 53.7079 404.763 53.2769C397.589 52.4679 393.256 55.7119 370.156 79.1839L349.5 100.173L349 68.3369C348.523 37.9639 348.397 36.2919 346.271 31.9779C345.045 29.4909 342.795 26.7299 341.271 25.8409C337.748 23.7879 331.431 22.9339 327.275 23.9489ZM245.5 48.1229C232.856 49.4579 222.831 52.9909 215.2 58.8009C204.424 67.0059 204.004 85.1789 214.49 89.5599C222.291 92.8199 229.162 90.3399 237.996 81.0749C246.455 72.2039 252.473 70.3279 263.534 73.1129C269.788 74.6879 273.346 78.4799 272.642 82.8189C271.576 89.3859 267.251 91.7549 250.5 94.9459C217.463 101.238 203.125 110.935 199.986 129.105C195.66 154.15 215.645 175 243.977 175C250.67 175 263.077 172.022 269.025 168.987L273.212 166.851L275.37 168.878C283.281 176.31 298.576 175.449 303.275 167.306C304.938 164.426 305.105 161.774 304.976 140.306C304.897 127.213 304.511 106.375 304.118 93.9999C303.478 73.8309 303.184 71.0799 301.282 67.4469C293.709 52.9809 271.701 45.3569 245.5 48.1229ZM543.202 50.0219C515.391 57.3079 495.582 82.6629 495.561 111C495.553 122.65 497.013 128.991 502.241 140C507.431 150.928 518.809 162.681 529.624 168.285C561.479 184.791 599.014 171.689 614.953 138.5C619.803 128.402 621.336 121.725 621.269 111C621.011 69.7439 582.561 39.7109 543.202 50.0219ZM71.126 50.1269C65.314 51.0919 56.799 54.9379 53.35 58.1549L51.2 60.1609L47.04 57.4079C39.045 52.1169 28.643 53.4089 23.571 60.3239C21.541 63.0909 21.5 64.1489 21.5 113.324C21.5 162.139 21.556 163.595 23.554 166.997C27.724 174.095 34.892 176.547 44.044 174.004C48.065 172.887 53.36 167.872 54.939 163.685C55.614 161.894 56 148.028 56 125.57C56 91.2859 56.06 90.1929 58.088 87.6149C61.275 83.5639 65.209 81.9999 72.2 82.0039C79.258 82.0079 83.661 84.0279 86.696 88.6559C88.325 91.1409 88.548 94.9119 89 127.633C89.478 162.247 89.592 163.981 91.562 166.617C95.226 171.52 98.602 173.344 104.853 173.796C112.204 174.327 117.078 172.22 120.234 167.144C122.454 163.574 122.51 162.757 123 127C123.543 87.3579 123.525 87.4799 129.314 83.9499C133.613 81.3289 144.14 81.2669 149.016 83.8349C155.811 87.4129 155.997 88.5259 155.998 125.624C156 152.833 156.274 159.525 157.534 163.096C160.478 171.442 166.324 175.47 174.505 174.791C180.746 174.274 185.033 171.489 187.627 166.27C189.334 162.833 189.525 159.343 189.786 126.81C190.101 87.4889 189.656 83.2049 184.126 72.2499C182.502 69.0339 178.752 64.1629 175.614 61.1959C160.15 46.5719 136.102 45.1599 119.359 57.8939L114.218 61.8039L110.859 59.0439C100.881 50.8439 86.389 47.5909 71.126 50.1269ZM476.5 50.2359C473.895 51.1719 468.784 54.2259 464.361 57.4879C463.391 58.2029 462.587 57.8549 461.445 56.2249C460.577 54.9859 458.116 53.0789 455.974 51.9869C448.273 48.0579 439.935 50.1199 435.316 57.0969L432.5 61.3509L432.201 106.425C431.835 161.57 432.448 166.622 440.171 172.122C442.489 173.772 444.818 174.415 448.61 174.451C455.401 174.515 458.588 172.221 462.5 164.455L465.5 158.5V128C465.5 98.9829 465.604 97.2759 467.631 92.8919C470.299 87.1219 474.795 83.6659 482.5 81.4609C492.961 78.4679 497.521 75.6199 499.975 70.5509C501.576 67.2439 501.979 65.1499 501.473 62.7639C500.597 58.6309 496.685 53.3889 492.634 50.9189C489.132 48.7829 481.448 48.4579 476.5 50.2359ZM550.909 78.5539C540.622 81.7229 531.82 93.7079 530.49 106.36C529.688 113.989 531.952 125.536 535.405 131.428C545.993 149.496 565.994 151.851 577.836 136.425C589.764 120.888 588.174 95.2459 574.539 83.2429C567.745 77.2629 560.054 75.7369 550.909 78.5539ZM257.552 118.616C250.195 120.01 242.871 122.026 240.591 123.284C229.681 129.307 229.152 142.241 239.636 146.621C243.521 148.245 253.938 148.423 259.219 146.956C263.76 145.695 268.522 141.825 270.688 137.636C272.907 133.346 273.873 115.965 271.886 116.082C271.124 116.127 264.673 117.267 257.552 118.616Z" fill="white"/>
</svg>
