<svg width="528" height="487" viewBox="0 0 528 487" fill="none" xmlns="http://www.w3.org/2000/svg">
<path fill-rule="evenodd" clip-rule="evenodd" d="M253.965 150.872V265.745H204.108H154.25V198.389V131.034L150.336 131.28L146.421 131.526L146.211 202.263L146 273H203.691H261.382V154.5V36H257.674H253.965V150.872ZM267.975 154.5V273H325.661H383.348V202.017V131.034L379.434 131.28L375.519 131.526L375.308 198.635L375.098 265.745H325.656H276.216V150.872V36H272.095H267.975V154.5ZM238.308 152.888V250.429H204.113H169.919L169.708 197.426L169.496 144.423L165.581 144.178L161.667 143.932V201.211V258.49H204.108H246.548V156.918V55.3469H242.428H238.308V152.888ZM283.633 156.918V258.49H325.661H367.69V201.255V144.02H363.982H360.273V197.224V250.429H325.661H291.049V152.888V55.3469H287.341H283.633V156.918ZM223.474 155.709V235.918H204.108H184.741V197.224V158.531H180.614H176.486L176.699 200.651L176.913 242.77L203.902 242.983L230.891 243.195V159.348V75.5H227.182H223.474V155.709ZM298.466 159.337V243.173H325.661H352.857V200.852V158.531H348.736H344.616V197.224V235.918H325.661H306.707V155.709V75.5H302.587H298.466V159.337ZM208.366 97.803C208.063 98.098 207.816 125.849 207.816 159.471V220.602H203.696H199.575V196.418V172.235H195.867H192.158V200.449V228.663H204.108H216.057V162.964V97.2653H212.486C210.522 97.2653 208.667 97.5071 208.366 97.803ZM313.679 98.273C313.463 98.8276 313.382 128.301 313.499 163.77L313.712 228.26L325.867 228.484L338.023 228.706V200.471V172.235H333.902H329.782V196.418V220.602H325.661H321.541V158.934V97.2653H317.807C315.579 97.2653 313.914 97.6716 313.679 98.273Z" fill="white"/>
<path d="M47.8786 304.008V313.953H51.5122C53.7706 313.953 55.4554 313.552 56.5664 312.751C57.6774 311.931 58.2329 310.711 58.2329 309.09C58.2329 307.341 57.6046 306.057 56.3478 305.238C55.1093 304.418 53.1423 304.008 50.4467 304.008H47.8786ZM37.7429 297.178H53.1787C58.3331 297.178 62.1488 298.007 64.6258 299.664C67.1028 301.322 68.3414 303.862 68.3414 307.287C68.3414 309.782 67.6857 311.84 66.3743 313.461C65.0812 315.064 63.187 316.157 60.6917 316.739C62.7134 317.486 64.3526 319.608 65.6094 323.105L70.2538 336H59.4623L56.0473 325.372C55.5009 323.679 54.7542 322.504 53.8071 321.848C52.8782 321.174 51.4029 320.837 49.3812 320.837H47.8786V336H37.7429V297.178ZM74.7889 327.094H83.9138V336H74.7889V327.094ZM107.846 305.839L102.819 320.4H112.709L107.846 305.839ZM101.808 297.178H114.294L128.992 336H117.927L115.168 327.777H100.224L97.328 336H87.0829L101.808 297.178ZM131.56 327.094H140.685V336H131.56V327.094ZM145.302 297.178H156.121L164.781 327.394L173.332 297.178H183.933L170.764 336H157.787L145.302 297.178ZM188.058 327.094H197.183V336H188.058V327.094ZM232.672 304.172V315.455H235.404C237.498 315.455 239.065 315 240.103 314.089C241.159 313.179 241.687 311.831 241.687 310.046C241.687 308.134 241.159 306.676 240.103 305.675C239.046 304.673 237.498 304.172 235.458 304.172H232.672ZM222.317 297.178H236.196C241.605 297.178 245.612 298.189 248.217 300.211C250.84 302.214 252.151 305.32 252.151 309.527C252.151 313.716 250.867 316.921 248.299 319.144C245.731 321.347 241.997 322.449 237.098 322.449H232.672V336H222.317V297.178ZM267.314 304.008V313.953H270.947C273.206 313.953 274.89 313.552 276.001 312.751C277.112 311.931 277.668 310.711 277.668 309.09C277.668 307.341 277.04 306.057 275.783 305.238C274.544 304.418 272.577 304.008 269.882 304.008H267.314ZM257.178 297.178H272.614C277.768 297.178 281.584 298.007 284.061 299.664C286.538 301.322 287.776 303.862 287.776 307.287C287.776 309.782 287.121 311.84 285.809 313.461C284.516 315.064 282.622 316.157 280.127 316.739C282.148 317.486 283.788 319.608 285.044 323.105L289.689 336H278.897L275.482 325.372C274.936 323.679 274.189 322.504 273.242 321.848C272.313 321.174 270.838 320.837 268.816 320.837H267.314V336H257.178V297.178ZM311.873 303.762C309.195 303.762 307.037 304.919 305.398 307.232C303.777 309.545 302.966 312.623 302.966 316.466C302.966 320.364 303.777 323.469 305.398 325.782C307.019 328.077 309.177 329.225 311.873 329.225C314.532 329.225 316.663 328.077 318.266 325.782C319.887 323.469 320.697 320.364 320.697 316.466C320.697 312.641 319.887 309.572 318.266 307.259C316.663 304.928 314.532 303.762 311.873 303.762ZM311.873 296.222C317.865 296.222 322.564 298.025 325.97 301.631C329.394 305.238 331.106 310.219 331.106 316.575C331.106 322.968 329.403 327.959 325.997 331.547C322.591 335.117 317.883 336.902 311.873 336.902C305.808 336.902 301.072 335.108 297.666 331.52C294.26 327.931 292.557 322.95 292.557 316.575C292.557 310.201 294.26 305.219 297.666 301.631C301.09 298.025 305.826 296.222 311.873 296.222ZM344.056 297.178H354.41V321.575C354.41 326.82 353.326 330.691 351.159 333.186C350.084 334.425 348.718 335.353 347.061 335.973C345.404 336.592 343.418 336.902 341.105 336.902C339.885 336.902 338.719 336.81 337.608 336.628C336.497 336.464 335.386 336.219 334.275 335.891V327.394C334.822 327.613 335.368 327.777 335.914 327.886C336.461 327.995 337.016 328.05 337.581 328.05C339.894 328.05 341.551 327.367 342.553 326.001C343.555 324.635 344.056 322.294 344.056 318.98V297.178ZM361.978 297.178H388.943V304.445H372.332V312.286H388.014V319.663H372.332V328.514H389.571V336H361.978V297.178ZM428.256 298.353L427.355 306.467C425.971 305.629 424.486 304.992 422.902 304.555C421.335 304.099 419.723 303.872 418.066 303.872C414.168 303.872 411.072 305.001 408.777 307.259C406.5 309.5 405.362 312.532 405.362 316.357C405.362 320.182 406.537 323.232 408.886 325.509C411.236 327.768 414.35 328.897 418.23 328.897C419.104 328.897 419.878 328.86 420.552 328.787C421.226 328.715 422.009 328.569 422.902 328.35C424.559 327.95 426.171 327.385 427.737 326.657L428.366 335.372C426.508 335.863 424.632 336.237 422.738 336.492C420.843 336.765 418.986 336.902 417.164 336.902C410.116 336.902 404.624 335.098 400.69 331.492C396.756 327.886 394.789 322.841 394.789 316.357C394.789 310.201 396.729 305.31 400.608 301.686C404.506 298.043 409.77 296.222 416.399 296.222C418.712 296.222 420.843 296.395 422.792 296.741C424.741 297.087 426.562 297.624 428.256 298.353ZM431.371 297.178H460.958V304.937H451.342V336H440.987V304.937H431.371V297.178ZM491.202 297.615L490.437 305.62C488.871 304.983 487.35 304.482 485.874 304.117C485.146 303.954 484.426 303.826 483.716 303.735C483.024 303.644 482.332 303.598 481.64 303.598C479.545 303.598 477.906 303.935 476.722 304.609C475.557 305.283 474.974 306.194 474.974 307.341C474.974 308.143 475.265 308.853 475.848 309.472C476.449 310.073 477.36 310.583 478.58 311.002L480.301 311.549C484.745 312.969 487.696 314.235 489.153 315.346C490.501 316.366 491.493 317.568 492.131 318.952C492.786 320.336 493.114 321.93 493.114 323.733C493.114 327.977 491.694 331.237 488.852 333.514C486.011 335.772 481.895 336.902 476.504 336.902C474.591 336.902 472.651 336.765 470.684 336.492C468.717 336.219 466.759 335.809 464.811 335.262L465.685 326.602C467.506 327.44 469.273 328.068 470.985 328.487C471.805 328.687 472.633 328.842 473.471 328.951C474.309 329.061 475.11 329.115 475.875 329.115C477.897 329.115 479.5 328.733 480.684 327.968C481.886 327.203 482.487 326.165 482.487 324.853C482.487 323.251 480.593 321.784 476.804 320.455L474.7 319.717C471.021 318.406 468.38 316.876 466.778 315.127C465.193 313.361 464.401 311.102 464.401 308.352C464.401 304.491 465.794 301.504 468.581 299.391C471.386 297.278 475.383 296.222 480.574 296.222C482.541 296.222 484.381 296.34 486.093 296.577C486.985 296.686 487.841 296.823 488.661 296.987C489.499 297.151 490.346 297.36 491.202 297.615Z" fill="white"/>
<path d="M79.9512 380.286C78.7207 380.989 77.4609 381.512 76.1719 381.854C74.8828 382.195 73.5303 382.366 72.1143 382.366C70.5127 382.366 69.0381 382.122 67.6904 381.634C66.3525 381.146 65.1807 380.428 64.1748 379.48C63.1396 378.494 62.3486 377.342 61.8018 376.023C61.2646 374.705 60.9961 373.289 60.9961 371.775C60.9961 368.592 62.0557 366.028 64.1748 364.085C66.3037 362.132 69.1113 361.155 72.5977 361.155C73.8477 361.155 75.0635 361.292 76.2451 361.565C77.4365 361.839 78.6133 362.259 79.7754 362.825V367.63C78.6426 366.897 77.5049 366.351 76.3623 365.989C75.2197 365.628 74.0771 365.447 72.9346 365.447C70.8643 365.447 69.2334 366.009 68.042 367.132C66.8604 368.255 66.2695 369.803 66.2695 371.775C66.2695 373.689 66.8359 375.218 67.9688 376.36C69.1016 377.503 70.625 378.074 72.5391 378.074C73.7695 378.074 75.0049 377.859 76.2451 377.43C77.4854 376.99 78.7207 376.346 79.9512 375.496V380.286ZM87.2461 371.775C87.2461 373.602 87.793 375.105 88.8867 376.287C89.9902 377.459 91.3916 378.045 93.0908 378.045C94.7998 378.045 96.2012 377.459 97.2949 376.287C98.3984 375.105 98.9502 373.602 98.9502 371.775C98.9502 369.939 98.3984 368.431 97.2949 367.249C96.2012 366.067 94.7998 365.477 93.0908 365.477C91.3916 365.477 89.9902 366.067 88.8867 367.249C87.793 368.431 87.2461 369.939 87.2461 371.775ZM81.9727 371.775C81.9727 370.252 82.2412 368.846 82.7783 367.557C83.3154 366.258 84.1162 365.101 85.1807 364.085C86.2158 363.108 87.3877 362.381 88.6963 361.902C90.0146 361.424 91.4795 361.185 93.0908 361.185C94.7217 361.185 96.1963 361.429 97.5146 361.917C98.833 362.396 100.01 363.118 101.045 364.085C102.1 365.101 102.896 366.258 103.433 367.557C103.979 368.846 104.253 370.252 104.253 371.775C104.253 373.289 103.979 374.695 103.433 375.994C102.896 377.283 102.1 378.426 101.045 379.422C100 380.398 98.8135 381.136 97.4854 381.634C96.167 382.122 94.7021 382.366 93.0908 382.366C91.4893 382.366 90.0293 382.122 88.7109 381.634C87.4023 381.146 86.2256 380.408 85.1807 379.422C84.126 378.426 83.3252 377.283 82.7783 375.994C82.2412 374.695 81.9727 373.289 81.9727 371.775ZM112.339 369.124V382H107.271V361.507H111.768L122.754 373.724V361.507H127.822V382H123.809L112.339 369.124ZM131.528 380.374V375.818C133.071 376.775 134.37 377.444 135.425 377.825C136.489 378.206 137.52 378.396 138.516 378.396C139.521 378.396 140.283 378.245 140.801 377.942C141.318 377.63 141.577 377.171 141.577 376.565C141.577 376.077 141.416 375.687 141.094 375.394C140.771 375.091 140.02 374.734 138.838 374.324C135.918 373.299 133.906 372.254 132.803 371.189C131.709 370.115 131.162 368.748 131.162 367.088C131.162 365.34 131.875 363.919 133.301 362.825C134.736 361.731 136.602 361.185 138.896 361.185C140.059 361.185 141.226 361.326 142.397 361.609C143.569 361.893 144.727 362.308 145.869 362.854V367.059C144.492 366.365 143.257 365.853 142.163 365.521C141.069 365.188 140.073 365.022 139.175 365.022C138.198 365.022 137.451 365.164 136.934 365.447C136.426 365.73 136.172 366.136 136.172 366.663C136.172 367.093 136.401 367.498 136.86 367.879C137.319 368.25 138.013 368.606 138.94 368.948C139.136 369.026 139.434 369.139 139.834 369.285C141.787 370.008 143.188 370.628 144.038 371.146C144.927 371.692 145.596 372.396 146.045 373.255C146.504 374.114 146.733 375.12 146.733 376.272C146.733 378.167 146.016 379.656 144.58 380.74C143.154 381.824 141.172 382.366 138.633 382.366C137.363 382.366 136.133 382.2 134.941 381.868C133.76 381.536 132.622 381.038 131.528 380.374ZM169.014 361.507V373.24C169.014 376.111 168.159 378.353 166.45 379.964C164.751 381.565 162.373 382.366 159.316 382.366C156.27 382.366 153.892 381.565 152.183 379.964C150.483 378.353 149.634 376.111 149.634 373.24V361.507H154.79V373.035C154.79 374.666 155.181 375.916 155.962 376.785C156.743 377.645 157.876 378.074 159.36 378.074C160.835 378.074 161.958 377.645 162.729 376.785C163.501 375.926 163.887 374.676 163.887 373.035V361.507H169.014ZM172.925 382V361.507H178.052V378.045H186.885V382H172.925ZM192.524 382V365.315H185.742V361.507H204.712V365.315H197.93V382H192.524ZM211.201 371.775C211.201 373.602 211.748 375.105 212.842 376.287C213.945 377.459 215.347 378.045 217.046 378.045C218.755 378.045 220.156 377.459 221.25 376.287C222.354 375.105 222.905 373.602 222.905 371.775C222.905 369.939 222.354 368.431 221.25 367.249C220.156 366.067 218.755 365.477 217.046 365.477C215.347 365.477 213.945 366.067 212.842 367.249C211.748 368.431 211.201 369.939 211.201 371.775ZM205.928 371.775C205.928 370.252 206.196 368.846 206.733 367.557C207.271 366.258 208.071 365.101 209.136 364.085C210.171 363.108 211.343 362.381 212.651 361.902C213.97 361.424 215.435 361.185 217.046 361.185C218.677 361.185 220.151 361.429 221.47 361.917C222.788 362.396 223.965 363.118 225 364.085C226.055 365.101 226.851 366.258 227.388 367.557C227.935 368.846 228.208 370.252 228.208 371.775C228.208 373.289 227.935 374.695 227.388 375.994C226.851 377.283 226.055 378.426 225 379.422C223.955 380.398 222.769 381.136 221.44 381.634C220.122 382.122 218.657 382.366 217.046 382.366C215.444 382.366 213.984 382.122 212.666 381.634C211.357 381.146 210.181 380.408 209.136 379.422C208.081 378.426 207.28 377.283 206.733 375.994C206.196 374.695 205.928 373.289 205.928 371.775ZM238.945 369.915C239.893 369.915 240.596 369.72 241.055 369.329C241.523 368.929 241.758 368.323 241.758 367.513C241.758 366.741 241.514 366.155 241.025 365.755C240.547 365.345 239.854 365.14 238.945 365.14H236.484V369.915H238.945ZM231.343 382V361.507H238.916C241.699 361.507 243.755 361.99 245.083 362.957C246.411 363.924 247.075 365.423 247.075 367.454C247.075 368.587 246.782 369.559 246.196 370.369C245.61 371.17 244.712 371.849 243.501 372.405C244.009 372.591 244.463 372.903 244.863 373.343C245.273 373.772 245.63 374.319 245.933 374.983L249.199 382H243.413L240.806 376.097C240.386 375.159 239.907 374.515 239.37 374.163C238.833 373.812 238.071 373.636 237.085 373.636C237.007 373.636 236.904 373.641 236.777 373.65C236.65 373.66 236.553 373.665 236.484 373.665V382H231.343ZM250.972 382V361.507H256.26V382H250.972ZM266.382 374.5H272.432L269.561 366.707L266.382 374.5ZM257.798 382L266.733 361.507H272.651L280.635 382H275.2L273.735 378.016H264.902L263.262 382H257.798ZM299.326 377.62L295.84 373.606C295.098 374.104 294.57 374.568 294.258 374.998C293.955 375.428 293.804 375.901 293.804 376.419C293.804 377.122 294.028 377.698 294.478 378.147C294.937 378.597 295.522 378.821 296.235 378.821C296.743 378.821 297.251 378.724 297.759 378.528C298.276 378.323 298.799 378.021 299.326 377.62ZM303.281 382L301.816 380.403C300.84 381.058 299.814 381.551 298.74 381.883C297.666 382.205 296.558 382.366 295.415 382.366C293.521 382.366 291.963 381.849 290.742 380.813C289.521 379.778 288.911 378.475 288.911 376.902C288.911 375.711 289.268 374.632 289.98 373.665C290.693 372.698 291.836 371.746 293.408 370.809C292.676 369.842 292.168 369.041 291.885 368.406C291.602 367.771 291.46 367.142 291.46 366.517C291.46 364.944 292.046 363.66 293.218 362.664C294.399 361.658 295.942 361.155 297.847 361.155C299.634 361.155 301.064 361.6 302.139 362.488C303.223 363.367 303.765 364.52 303.765 365.945C303.765 367.01 303.462 367.977 302.856 368.846C302.261 369.715 301.333 370.53 300.073 371.292L302.856 374.471C303.521 373.621 304.009 372.962 304.321 372.493C304.644 372.024 304.878 371.624 305.024 371.292H309.639C308.926 372.757 308.232 373.978 307.559 374.954C306.895 375.931 306.201 376.751 305.479 377.415L309.463 382H303.281ZM297.817 368.743C298.501 368.372 298.999 367.981 299.312 367.571C299.634 367.161 299.795 366.712 299.795 366.224C299.795 365.696 299.624 365.276 299.282 364.964C298.94 364.642 298.481 364.48 297.905 364.48C297.349 364.48 296.89 364.627 296.528 364.92C296.167 365.203 295.986 365.564 295.986 366.004C295.986 366.346 296.123 366.727 296.396 367.146C296.68 367.557 297.153 368.089 297.817 368.743ZM327.847 370.003C328.813 370.003 329.531 369.812 330 369.432C330.469 369.041 330.703 368.45 330.703 367.659C330.703 366.907 330.459 366.331 329.971 365.931C329.482 365.521 328.784 365.315 327.876 365.315H325.415V370.003H327.847ZM320.259 382V361.507H327.817C330.591 361.507 332.642 362.01 333.97 363.016C335.308 364.021 335.977 365.56 335.977 367.63C335.977 369.759 335.264 371.351 333.838 372.405C332.412 373.46 330.269 373.987 327.407 373.987H325.415V382H320.259ZM346.582 369.915C347.529 369.915 348.232 369.72 348.691 369.329C349.16 368.929 349.395 368.323 349.395 367.513C349.395 366.741 349.15 366.155 348.662 365.755C348.184 365.345 347.49 365.14 346.582 365.14H344.121V369.915H346.582ZM338.979 382V361.507H346.553C349.336 361.507 351.392 361.99 352.72 362.957C354.048 363.924 354.712 365.423 354.712 367.454C354.712 368.587 354.419 369.559 353.833 370.369C353.247 371.17 352.349 371.849 351.138 372.405C351.646 372.591 352.1 372.903 352.5 373.343C352.91 373.772 353.267 374.319 353.569 374.983L356.836 382H351.05L348.442 376.097C348.022 375.159 347.544 374.515 347.007 374.163C346.47 373.812 345.708 373.636 344.722 373.636C344.644 373.636 344.541 373.641 344.414 373.65C344.287 373.66 344.189 373.665 344.121 373.665V382H338.979ZM362.725 371.775C362.725 373.602 363.271 375.105 364.365 376.287C365.469 377.459 366.87 378.045 368.569 378.045C370.278 378.045 371.68 377.459 372.773 376.287C373.877 375.105 374.429 373.602 374.429 371.775C374.429 369.939 373.877 368.431 372.773 367.249C371.68 366.067 370.278 365.477 368.569 365.477C366.87 365.477 365.469 366.067 364.365 367.249C363.271 368.431 362.725 369.939 362.725 371.775ZM357.451 371.775C357.451 370.252 357.72 368.846 358.257 367.557C358.794 366.258 359.595 365.101 360.659 364.085C361.694 363.108 362.866 362.381 364.175 361.902C365.493 361.424 366.958 361.185 368.569 361.185C370.2 361.185 371.675 361.429 372.993 361.917C374.312 362.396 375.488 363.118 376.523 364.085C377.578 365.101 378.374 366.258 378.911 367.557C379.458 368.846 379.731 370.252 379.731 371.775C379.731 373.289 379.458 374.695 378.911 375.994C378.374 377.283 377.578 378.426 376.523 379.422C375.479 380.398 374.292 381.136 372.964 381.634C371.646 382.122 370.181 382.366 368.569 382.366C366.968 382.366 365.508 382.122 364.189 381.634C362.881 381.146 361.704 380.408 360.659 379.422C359.604 378.426 358.804 377.283 358.257 375.994C357.72 374.695 357.451 373.289 357.451 371.775ZM379.937 383.919C381.196 383.88 382.041 383.616 382.471 383.128C382.9 382.64 383.115 381.565 383.115 379.905V361.507H388.242V380.081C388.242 382.952 387.754 384.964 386.777 386.116C385.811 387.278 384.136 387.894 381.753 387.962L379.937 383.919ZM392.417 382V361.507H406.128V365.286H397.544V369.461H405.747V373.27H397.544V378.162H406.377V382H392.417ZM414.624 382V365.315H407.842V361.507H426.812V365.315H420.029V382H414.624ZM433.301 371.775C433.301 373.602 433.848 375.105 434.941 376.287C436.045 377.459 437.446 378.045 439.146 378.045C440.854 378.045 442.256 377.459 443.35 376.287C444.453 375.105 445.005 373.602 445.005 371.775C445.005 369.939 444.453 368.431 443.35 367.249C442.256 366.067 440.854 365.477 439.146 365.477C437.446 365.477 436.045 366.067 434.941 367.249C433.848 368.431 433.301 369.939 433.301 371.775ZM428.027 371.775C428.027 370.252 428.296 368.846 428.833 367.557C429.37 366.258 430.171 365.101 431.235 364.085C432.271 363.108 433.442 362.381 434.751 361.902C436.069 361.424 437.534 361.185 439.146 361.185C440.776 361.185 442.251 361.429 443.569 361.917C444.888 362.396 446.064 363.118 447.1 364.085C448.154 365.101 448.95 366.258 449.487 367.557C450.034 368.846 450.308 370.252 450.308 371.775C450.308 373.289 450.034 374.695 449.487 375.994C448.95 377.283 448.154 378.426 447.1 379.422C446.055 380.398 444.868 381.136 443.54 381.634C442.222 382.122 440.757 382.366 439.146 382.366C437.544 382.366 436.084 382.122 434.766 381.634C433.457 381.146 432.28 380.408 431.235 379.422C430.181 378.426 429.38 377.283 428.833 375.994C428.296 374.695 428.027 373.289 428.027 371.775ZM453.003 380.374V375.818C454.546 376.775 455.845 377.444 456.899 377.825C457.964 378.206 458.994 378.396 459.99 378.396C460.996 378.396 461.758 378.245 462.275 377.942C462.793 377.63 463.052 377.171 463.052 376.565C463.052 376.077 462.891 375.687 462.568 375.394C462.246 375.091 461.494 374.734 460.312 374.324C457.393 373.299 455.381 372.254 454.277 371.189C453.184 370.115 452.637 368.748 452.637 367.088C452.637 365.34 453.35 363.919 454.775 362.825C456.211 361.731 458.076 361.185 460.371 361.185C461.533 361.185 462.7 361.326 463.872 361.609C465.044 361.893 466.201 362.308 467.344 362.854V367.059C465.967 366.365 464.731 365.853 463.638 365.521C462.544 365.188 461.548 365.022 460.649 365.022C459.673 365.022 458.926 365.164 458.408 365.447C457.9 365.73 457.646 366.136 457.646 366.663C457.646 367.093 457.876 367.498 458.335 367.879C458.794 368.25 459.487 368.606 460.415 368.948C460.61 369.026 460.908 369.139 461.309 369.285C463.262 370.008 464.663 370.628 465.513 371.146C466.401 371.692 467.07 372.396 467.52 373.255C467.979 374.114 468.208 375.12 468.208 376.272C468.208 378.167 467.49 379.656 466.055 380.74C464.629 381.824 462.646 382.366 460.107 382.366C458.838 382.366 457.607 382.2 456.416 381.868C455.234 381.536 454.097 381.038 453.003 380.374Z" fill="white"/>
</svg>
