<svg width="89" height="50" viewBox="0 0 89 50" fill="none" xmlns="http://www.w3.org/2000/svg">
<path d="M2.19176 30L4.60653 15.4545H10.6151C11.7041 15.4545 12.6132 15.651 13.3423 16.044C14.0715 16.4323 14.59 16.991 14.8977 17.7202C15.2055 18.4446 15.2765 19.304 15.1108 20.2983C14.9498 21.3021 14.59 22.1567 14.0312 22.8622C13.4773 23.563 12.7623 24.098 11.8864 24.4673C11.0152 24.8366 10.0256 25.0213 8.91761 25.0213H5.1179L5.58665 22.2514H8.73295C9.25852 22.2514 9.71307 22.1828 10.0966 22.0455C10.4801 21.9034 10.7855 21.6903 11.0128 21.4062C11.2448 21.1174 11.3987 20.7481 11.4744 20.2983C11.5455 19.8485 11.5123 19.4768 11.375 19.1832C11.2424 18.8849 11.008 18.6624 10.6719 18.5156C10.3404 18.3641 9.9143 18.2884 9.39347 18.2884H7.66051L5.70739 30H2.19176ZM11.4815 23.3523L14.0028 30H10.1676L7.72443 23.3523H11.4815ZM26.8047 15.4545H30.3132L28.7578 24.8366C28.5779 25.9209 28.1636 26.8655 27.5149 27.6705C26.871 28.4706 26.0495 29.0909 25.0504 29.5312C24.0514 29.9669 22.9387 30.1847 21.7124 30.1847C20.4813 30.1847 19.442 29.9669 18.5945 29.5312C17.7469 29.0909 17.1338 28.4706 16.755 27.6705C16.3762 26.8655 16.2744 25.9209 16.4496 24.8366L18.005 15.4545H21.5206L20.0078 24.5312C19.9273 25.0331 19.9652 25.4806 20.1214 25.8736C20.2824 26.2618 20.5429 26.5696 20.9027 26.7969C21.2625 27.0194 21.7029 27.1307 22.2237 27.1307C22.7493 27.1307 23.2299 27.0194 23.6655 26.7969C24.1011 26.5696 24.4609 26.2618 24.745 25.8736C25.0291 25.4806 25.2114 25.0331 25.2919 24.5312L26.8047 15.4545ZM44.896 15.4545L42.4812 30H39.4982L35.1161 21.6051H35.0167L33.6175 30H30.1019L32.5167 15.4545H35.5423L39.8888 23.8352H40.0096L41.3874 15.4545H44.896ZM59.4858 15.4545L57.071 30H54.0881L49.706 21.6051H49.6065L48.2074 30H44.6918L47.1065 15.4545H50.1321L54.4787 23.8352H54.5994L55.9773 15.4545H59.4858ZM59.2816 30L61.6964 15.4545H71.8384L71.3555 18.3097H64.729L64.2461 21.2926H70.354L69.8711 24.1548H63.7631L63.2802 27.1449H69.9066L69.4237 30H59.2816ZM71.6254 30L74.0401 15.4545H80.0487C81.1377 15.4545 82.0468 15.651 82.7759 16.044C83.5051 16.4323 84.0236 16.991 84.3313 17.7202C84.6391 18.4446 84.7101 19.304 84.5444 20.2983C84.3834 21.3021 84.0236 22.1567 83.4648 22.8622C82.9109 23.563 82.1959 24.098 81.32 24.4673C80.4487 24.8366 79.4592 25.0213 78.3512 25.0213H74.5515L75.0202 22.2514H78.1665C78.6921 22.2514 79.1467 22.1828 79.5302 22.0455C79.9137 21.9034 80.2191 21.6903 80.4464 21.4062C80.6784 21.1174 80.8323 20.7481 80.908 20.2983C80.979 19.8485 80.9459 19.4768 80.8086 19.1832C80.676 18.8849 80.4416 18.6624 80.1055 18.5156C79.774 18.3641 79.3479 18.2884 78.8271 18.2884H77.0941L75.141 30H71.6254ZM80.9151 23.3523L83.4364 30H79.6012L77.158 23.3523H80.9151Z" fill="white"/>
</svg>
