<svg width="920" height="183" viewBox="0 0 920 183" fill="none" xmlns="http://www.w3.org/2000/svg">
<g clip-path="url(#clip0_2352_8)">
<path fill-rule="evenodd" clip-rule="evenodd" d="M875.429 6.75C875.762 18.893 877.799 17.775 854.646 18.163C834.992 18.492 834.348 18.569 828.499 21.308C821.167 24.741 818.48 27.16 815.498 33.017C811.458 40.953 810.669 45.741 810.558 63C810.443 81.079 810.002 82.806 804.682 86.05C798.992 89.519 785.348 88.255 781.396 83.891C779.638 81.95 779.459 79.438 778.996 50.38L778.496 18.966L768.996 18.531C763.771 18.292 753.983 18.365 747.246 18.694L734.996 19.292V50.936C734.996 84.197 735.437 88.427 739.976 98.688C742.147 103.595 750.784 113.183 755.996 116.471C757.921 117.686 762.421 119.85 765.996 121.281L772.496 123.882V144.407V164.932L794.996 165.216L817.496 165.5L817.209 144.464L816.923 123.428L820.399 122.171C826.349 120.02 838.339 113.04 841.831 109.695C843.665 107.938 846.298 104.583 847.682 102.24C852.501 94.08 853.371 89.633 853.436 72.837C853.469 64.222 853.871 56.797 854.329 56.337C854.788 55.876 859.625 55.495 865.079 55.489L874.996 55.477V64.239C874.996 69.057 875.333 72.992 875.746 72.983C876.159 72.974 879.687 70.386 883.588 67.233C904.91 49.995 919.416 37.848 919.802 36.91C920.119 36.137 877.179 0 875.944 0C875.559 0 875.328 3.037 875.429 6.75ZM649.947 16.061C638.369 17.766 625.054 24.615 618.247 32.367C614.544 36.584 609.507 46.816 608.075 53.028C607.438 55.794 607.036 78.007 607.02 111.25L606.996 165H628.996H650.996V144.5V124L655.996 123.875C658.746 123.806 663.921 123.75 667.496 123.75C671.071 123.75 675.992 123.806 678.431 123.875L682.866 124L682.486 144.5L682.107 165H704.076H726.044L725.77 108.25L725.496 51.5L722.496 44.509C716.833 31.312 701.944 19.792 686.253 16.467C678.955 14.92 659.195 14.699 649.947 16.061ZM419.246 18.568C417.651 20.287 417.476 125.032 419.057 131.888C422.87 148.429 437.054 161.646 456.06 166.369C465.773 168.783 488.337 168.619 497.249 166.071C500.96 165.009 503.996 164.367 503.996 164.642C503.996 164.917 504.657 164.482 505.464 163.675C506.755 162.384 507.691 162.524 513.214 164.83C518.873 167.194 521.015 167.49 534.814 167.818C552.731 168.244 560.449 166.843 571.377 161.18C580.939 156.225 587.258 149.753 591.78 140.281L595.496 132.5L595.778 75.75L596.059 19L589.778 18.869C586.323 18.797 576.521 18.781 567.996 18.835L552.496 18.932L551.974 72.716C551.687 102.297 551.35 126.601 551.224 126.724C551.099 126.848 549.572 127.685 547.832 128.585C542.913 131.128 534.335 130.096 531.327 126.598L528.996 123.888V71.444V19L526.246 18.899C515.865 18.517 485.98 18.592 485.91 19C485.862 19.275 485.642 42.9 485.421 71.5C485.137 108.146 484.677 124.15 483.864 125.702C481.699 129.832 472.955 131.263 466.464 128.551C464.557 127.754 462.893 126.967 462.768 126.801C462.642 126.635 462.305 102.227 462.018 72.561L461.496 18.622L441.496 18.632C430.496 18.638 421.271 18.323 420.996 17.932C420.721 17.541 419.934 17.828 419.246 18.568ZM79.9964 19.059C64.8594 21.733 52.8194 28.702 47.2154 38.036C35.1974 58.048 40.8054 81.288 60.9534 94.971C64.0364 97.065 75.3384 103.053 86.0674 108.278C106.048 118.009 107.996 119.496 107.996 125.012C107.996 128.717 105.104 129.039 74.3424 128.765L44.6124 128.5L44.8294 119.695C44.9494 114.853 44.7804 110.46 44.4554 109.934C44.1304 109.408 40.6074 111.795 36.6274 115.239C32.6464 118.682 22.7944 126.9 14.7324 133.5C6.67042 140.1 0.090416 145.95 0.109416 146.5C0.129416 147.05 5.13842 151.55 11.2424 156.5C17.3454 161.45 25.3004 167.985 28.9184 171.023C37.6854 178.383 43.6494 183 44.3904 183C44.7234 183 44.9964 178.838 44.9954 173.75V164.5L79.4234 164.799L113.852 165.098L121.674 162.481C140.388 156.221 149.042 145.377 150.564 126.282C151.099 119.568 150.825 117.376 148.565 110.308C145.839 101.782 140.754 94.1 135.237 90.171C133.642 89.036 121.955 82.934 109.265 76.612C95.7564 69.883 85.5304 64.172 84.5944 62.837C82.3394 59.617 82.6064 57.302 85.4464 55.441C87.6174 54.018 91.0404 53.918 115.446 54.562L142.996 55.288V37.144V19H129.155C121.542 19 108.605 18.795 100.405 18.544C92.2054 18.293 83.0214 18.525 79.9964 19.059ZM158.208 76.5L158.496 134.5L161.085 140C166.711 151.954 178.76 161.324 193.996 165.594C201.566 167.715 225.784 168.591 234.572 167.06C242.403 165.696 256.529 159.223 261.864 154.552C263.781 152.873 267.049 148.875 269.126 145.668C276.018 135.022 275.958 135.652 276.013 74.01L276.062 18.715L258.279 18.732C248.498 18.741 238.809 18.805 236.746 18.874L232.996 19V70.099C232.996 127.908 233.199 126.271 225.587 129.956C220.565 132.387 217.088 132.514 210.342 130.51C200.837 127.688 201.503 132.044 201.474 72.456C201.46 43.671 201.12 19.79 200.718 19.389C200.317 18.987 190.523 18.623 178.954 18.579L157.921 18.5L158.208 76.5ZM294.746 18.8L288.996 19.1V92.08V165.06L333.3 164.78L377.604 164.5L385.12 160.784C396.061 155.375 401.641 150.05 405.802 141.045C409.008 134.105 409.264 132.812 409.376 123.015C409.49 112.982 409.333 112.13 406.202 105.768C403.896 101.084 401.029 97.363 396.651 93.374L390.395 87.673L394.521 83.87C404.187 74.96 408.592 57.104 404.512 43.367C402.501 36.593 395.857 27.589 390.595 24.505C381.226 19.015 378.628 18.723 337.996 18.607C317.371 18.548 297.909 18.635 294.746 18.8ZM332.266 64.502L332.037 77H343.501C354.594 77 355.064 76.911 358.042 74.25C363.008 69.813 363.415 58.332 358.761 53.996C356.866 52.23 355.23 52 344.557 52.002L332.496 52.003L332.266 64.502ZM660.351 53.145C658.071 53.657 655.034 55.163 653.601 56.49C651.02 58.882 650.996 59.044 650.996 73.702V88.5L666.746 88.392L682.496 88.284L682.158 73.892C681.832 59.975 681.735 59.409 679.215 56.744C675.081 52.371 668.981 51.207 660.351 53.145ZM332.226 118.51L331.956 132L344.226 131.9C360.089 131.771 360.999 131.495 363.674 125.985C365.444 122.338 365.71 120.628 365.095 116.836C364.178 111.175 361.746 107.236 358.379 105.955C356.997 105.43 350.608 105.004 344.181 105.01L332.496 105.02L332.226 118.51ZM831.146 146.527C827.376 149.7 826.43 153.708 828.361 158.33C832.839 169.049 847.996 165.33 847.996 153.512C847.996 149.9 847.483 148.747 844.919 146.589C840.773 143.1 835.248 143.075 831.146 146.527ZM834.496 147.195C831.292 149.012 829.574 153 831.996 153C832.546 153 832.925 152.662 832.837 152.25C832.123 148.878 836.868 146.862 841.414 148.607C843.404 149.37 843.493 153.872 841.534 154.624C840.266 155.11 840.281 155.506 841.649 157.593C843.093 159.798 843.088 160 841.59 160C840.69 160 839.441 158.875 838.814 157.5C838.188 156.125 837.297 155 836.835 155C836.374 155 835.996 156.125 835.996 157.5C835.996 159.056 835.429 160 834.496 160C833.015 160 832.709 159.249 832.735 155.674C832.744 154.4 832.431 154.165 831.699 154.897C830.073 156.523 832.502 160.838 835.462 161.581C839.791 162.667 843.002 161.231 844.555 157.512C846.242 153.475 845.295 150.023 841.837 147.601C839.166 145.731 837.264 145.625 834.496 147.195ZM835.996 151.427C835.996 152.354 836.851 153 838.079 153C840.516 153 840.172 150.663 837.663 150.177C836.676 149.985 835.996 150.495 835.996 151.427ZM836.996 158.833C836.996 160.165 837.621 161 838.618 161C840.007 161 840.048 160.748 838.901 159.25C838.165 158.287 837.435 157.313 837.279 157.083C837.123 156.854 836.996 157.642 836.996 158.833Z" fill="white"/>
</g>
<defs>
<clipPath id="clip0_2352_8">
<rect width="920" height="183" fill="white"/>
</clipPath>
</defs>
</svg>
